<svg width="498" height="346" viewBox="0 0 498 346" fill="none" xmlns="http://www.w3.org/2000/svg">
<path d="M80.1867 108.398C80.152 105.966 77.9661 104.147 75.5346 104.197C59.2911 104.533 44.6857 93.2096 41.3927 76.7445C37.7043 58.2147 49.7355 40.2117 68.1776 36.5233C86.7074 32.8349 104.71 44.8662 108.399 63.3082C109.615 69.5107 109.105 75.6711 107.16 81.2646C106.085 84.3552 108.333 88.0367 111.598 87.8233L114.612 87.6263C116.176 87.5241 117.552 86.5218 118.023 85.0261C121.704 73.3143 120.569 60.1399 113.756 48.7302C101.11 27.5658 73.6223 20.6281 52.4579 33.274C31.2935 45.92 24.3558 73.4074 37.0018 94.5718C45.6429 109.001 61.019 116.771 76.6673 116.336C78.7292 116.279 80.2741 114.512 80.2446 112.45L80.1867 108.398Z" fill="#2D9CDB"/>
<path d="M160.212 51.277C169.521 67.26 190.07 72.7048 206.054 63.396C222.037 54.0872 227.481 33.5375 218.173 17.5544C208.864 1.57132 188.314 -3.87346 172.331 5.43536C156.348 14.7442 150.903 35.2061 160.212 51.277ZM184.187 7.98212C198.062 5.34755 211.498 14.5686 214.045 28.444C216.68 42.3194 207.459 55.7557 193.583 58.3025C179.708 60.9371 166.271 51.716 163.725 37.8406C161.178 23.9652 170.223 10.6167 184.187 7.98212Z" fill="#FF8B24"/>
<path d="M4.50856 184.674C13.5539 200.218 33.4889 205.487 49.1207 196.442C64.7525 187.397 69.9338 167.462 60.8884 151.918C51.8431 136.374 31.9081 131.105 16.3641 140.15C0.73234 149.195 -4.53681 169.13 4.50856 184.674ZM27.8685 142.609C41.3926 140.062 54.3898 149.02 56.9366 162.544C59.4833 176.068 50.5258 189.065 37.0016 191.612C23.4775 194.159 10.4803 185.201 7.93351 171.677C5.38675 158.153 14.3443 145.156 27.8685 142.609Z" fill="#FFC924"/>
<path d="M31.3813 268.278C38.5824 280.661 54.4777 284.876 66.948 277.675C79.4183 270.474 83.5458 254.578 76.3447 242.108C69.1435 229.725 53.2482 225.51 40.7779 232.711C28.3076 239.912 24.1801 255.808 31.3813 268.278ZM49.9111 234.731C60.7129 232.711 71.0755 239.825 73.0954 250.626C75.1152 261.428 68.0018 271.791 57.2001 273.811C46.3983 275.83 36.0357 268.717 34.0158 257.915C32.0838 247.114 39.1972 236.751 49.9111 234.731Z" fill="#87E774"/>
<path d="M259.447 65.4158C271.566 86.229 298.176 93.2545 318.989 81.2233C339.802 69.1042 346.828 42.495 334.796 21.6819C322.677 0.868768 296.068 -6.15676 275.255 5.87446C254.442 17.9935 247.416 44.6027 259.447 65.4158ZM290.623 9.21159C308.714 5.78664 326.102 17.73 329.439 35.8208C332.864 53.9115 320.921 71.2997 302.83 74.6368C284.739 78.0618 267.351 66.1184 264.014 48.0276C260.677 30.0247 272.533 12.6365 290.623 9.21159Z" fill="#87E774"/>
<path opacity="0.66" d="M218.787 298.312C211.235 298.312 205.087 304.459 205.087 312.012C205.087 319.564 211.235 325.712 218.787 325.712C226.34 325.712 232.487 319.564 232.487 312.012C232.487 304.459 226.34 298.312 218.787 298.312ZM218.787 320.355C214.133 320.355 210.357 316.579 210.357 311.924C210.357 307.27 214.133 303.493 218.787 303.493C223.442 303.493 227.218 307.27 227.218 311.924C227.218 316.579 223.442 320.355 218.787 320.355Z" fill="#F1EEEE"/>
<path d="M177.776 160.436H197.272V188.45H206.141L187.085 202.062L170.399 187.484H178.215L177.776 160.436Z" fill="#87E774"/>
<path d="M384.326 264.151H338.046C336.465 264.151 335.148 262.833 335.148 261.252C335.148 259.672 336.465 258.354 338.046 258.354H384.326C385.907 258.354 387.224 259.672 387.224 261.252C387.224 262.833 385.907 264.151 384.326 264.151Z" fill="#B0F2A4"/>
<path d="M369.046 293.219H322.765C321.184 293.219 319.867 291.901 319.867 290.321C319.867 288.74 321.184 287.423 322.765 287.423H369.046C370.627 287.423 371.944 288.74 371.944 290.321C371.944 291.901 370.627 293.219 369.046 293.219Z" fill="#B0F2A4"/>
<path d="M431.837 264.151H397.236C395.655 264.151 394.338 262.833 394.338 261.252C394.338 259.672 395.655 258.354 397.236 258.354H431.837C433.417 258.354 434.735 259.672 434.735 261.252C434.735 262.833 433.417 264.151 431.837 264.151Z" fill="#B0F2A4"/>
<path d="M358.332 250.099H323.907C322.326 250.099 321.009 248.782 321.009 247.201C321.009 245.621 322.326 244.303 323.907 244.303H358.332C359.913 244.303 361.23 245.621 361.23 247.201C361.23 248.87 359.913 250.099 358.332 250.099Z" fill="#B0F2A4"/>
<path d="M413.219 235.609H390.035C388.454 235.609 387.137 234.292 387.137 232.711C387.137 231.131 388.454 229.813 390.035 229.813H413.131C414.712 229.813 416.029 231.131 416.029 232.711C416.029 234.292 414.8 235.609 413.219 235.609Z" fill="#B0F2A4"/>
<path d="M331.459 307.094H308.363C306.782 307.094 305.465 305.777 305.465 304.196C305.465 302.615 306.782 301.298 308.363 301.298H331.459C333.04 301.298 334.357 302.615 334.357 304.196C334.357 305.777 333.04 307.094 331.459 307.094Z" fill="#B0F2A4"/>
<path d="M374.754 235.609H307.748C306.167 235.609 304.85 234.292 304.85 232.711C304.85 231.131 306.167 229.813 307.748 229.813H374.754C376.335 229.813 377.652 231.131 377.652 232.711C377.652 234.292 376.335 235.609 374.754 235.609Z" fill="#B0F2A4"/>
<path d="M445.975 279.343H338.046C336.465 279.343 335.148 278.026 335.148 276.445C335.148 274.864 336.465 273.547 338.046 273.547H445.975C447.556 273.547 448.873 274.864 448.873 276.445C448.873 278.026 447.556 279.343 445.975 279.343Z" fill="#B0F2A4"/>
<path d="M455.811 336.25C466.724 336.25 475.571 327.404 475.571 316.491C475.571 305.578 466.724 296.731 455.811 296.731C444.898 296.731 436.052 305.578 436.052 316.491C436.052 327.404 444.898 336.25 455.811 336.25Z" fill="#87E774"/>
<path d="M471.004 102.036L446.327 164.3C445.712 165.793 444.043 166.496 442.638 165.881C441.145 165.266 440.443 163.598 441.058 162.193L465.735 99.9287C466.349 98.4358 468.018 97.7333 469.423 98.348C470.828 98.8749 471.619 100.543 471.004 102.036Z" fill="#B0F2A4"/>
<path d="M436.315 147.263L421.21 132.158L436.315 117.053C437.457 115.912 437.457 114.155 436.315 113.014C435.174 111.872 433.417 111.872 432.276 113.014L415.151 130.139C414.009 131.28 414.009 133.037 415.151 134.178L432.276 151.303C433.417 152.445 435.174 152.445 436.315 151.303C437.457 150.161 437.457 148.317 436.315 147.263Z" fill="#B0F2A4"/>
<path d="M475.483 117.053L490.587 132.158L475.483 147.263C474.341 148.405 474.341 150.161 475.483 151.303C476.624 152.445 478.381 152.445 479.522 151.303L496.647 134.178C497.789 133.037 497.789 131.28 496.647 130.139L479.522 113.014C478.381 111.872 476.624 111.872 475.483 113.014C474.341 114.068 474.341 115.912 475.483 117.053Z" fill="#B0F2A4"/>
<path d="M431.573 68.9286C443.407 68.9286 453.001 59.335 453.001 47.5007C453.001 35.6664 443.407 26.0728 431.573 26.0728C419.739 26.0728 410.145 35.6664 410.145 47.5007C410.145 59.335 419.739 68.9286 431.573 68.9286Z" fill="#87E774"/>
<path d="M460.817 76.1298C463.969 76.1298 466.525 73.5741 466.525 70.4215C466.525 67.269 463.969 64.7133 460.817 64.7133C457.664 64.7133 455.109 67.269 455.109 70.4215C455.109 73.5741 457.664 76.1298 460.817 76.1298Z" fill="#87E774"/>
<path d="M185.504 345.559C191.857 345.559 197.008 340.408 197.008 334.055C197.008 327.701 191.857 322.55 185.504 322.55C179.15 322.55 174 327.701 174 334.055C174 340.408 179.15 345.559 185.504 345.559Z" fill="#87E774"/>
<path d="M430.607 307.797C432.693 307.797 434.383 306.106 434.383 304.02C434.383 301.935 432.693 300.244 430.607 300.244C428.522 300.244 426.831 301.935 426.831 304.02C426.831 306.106 428.522 307.797 430.607 307.797Z" fill="#87E774"/>
<path d="M30.9421 298.927C34.0947 298.927 36.6504 296.371 36.6504 293.219C36.6504 290.066 34.0947 287.51 30.9421 287.51C27.7896 287.51 25.2339 290.066 25.2339 293.219C25.2339 296.371 27.7896 298.927 30.9421 298.927Z" fill="#87E774"/>
<path d="M126.226 52.6821C129.379 52.6821 131.934 50.1264 131.934 46.9738C131.934 43.8212 129.379 41.2656 126.226 41.2656C123.073 41.2656 120.518 43.8212 120.518 46.9738C120.518 50.1264 123.073 52.6821 126.226 52.6821Z" fill="#2D9CDB"/>
<path d="M251.632 79.9938C253.232 79.9938 254.53 78.6963 254.53 77.0958C254.53 75.4952 253.232 74.1977 251.632 74.1977C250.031 74.1977 248.734 75.4952 248.734 77.0958C248.734 78.6963 250.031 79.9938 251.632 79.9938Z" fill="#87E774"/>
<path opacity="0.66" fill-rule="evenodd" clip-rule="evenodd" d="M109.101 100.719L358.244 98.9627C367.114 98.8749 374.403 105.988 374.403 114.77V180.195L299.932 181.074C286.408 181.161 275.606 192.49 276.045 206.014L279.207 301.386H235.385C232.575 294.624 225.813 289.794 217.909 289.794C210.093 289.794 203.331 294.536 200.433 301.386L110.067 301.298C101.549 301.386 94.5232 294.624 94.4354 286.193L92.1521 117.844C91.9765 107.042 98.1238 100.807 109.101 100.719ZM126.226 113.277C126.226 115.993 124.024 118.195 121.308 118.195C118.592 118.195 116.39 115.993 116.39 113.277C116.39 110.561 118.592 108.359 121.308 108.359C124.024 108.359 126.226 110.561 126.226 113.277ZM108.047 118.986C110.764 118.986 112.965 116.784 112.965 114.068C112.965 111.352 110.764 109.15 108.047 109.15C105.331 109.15 103.13 111.352 103.13 114.068C103.13 116.784 105.331 118.986 108.047 118.986ZM322.326 119.688C314.774 121.971 298.703 126.801 291.238 128.997C289.13 129.612 287.725 132.685 288.34 134.793C288.955 136.901 291.15 138.13 293.258 137.603L324.346 129.787C328.298 128.558 328.034 124.694 327.42 122.498C326.805 120.303 324.521 118.986 322.326 119.688ZM322.569 135.125C327.886 133.529 332.802 132.054 336.289 131.017C339.187 130.138 342.173 131.807 342.876 134.705L348.32 155.343C349.023 158.153 347.355 161.051 344.544 161.753L304.147 171.853C301.425 172.555 298.615 170.887 297.825 168.164L292.468 149.547C291.589 146.736 293.17 143.838 295.98 143.048C302.141 141.256 312.872 138.035 322.368 135.185L322.448 135.161L322.47 135.154L322.569 135.125ZM215.626 172.555C217.821 171.677 220.28 171.15 222.827 171.15C233.19 171.15 241.62 179.581 241.708 189.856C241.708 200.218 231.521 207.507 222.915 208.649C208.161 210.493 153.099 215.674 143.439 215.674C133.076 215.674 124.645 207.244 124.645 196.881C124.645 186.518 133.076 178.088 143.439 178.088C146.776 178.088 149.937 179.054 152.66 180.547C152.396 179.142 152.308 177.649 152.308 176.156C152.308 158.592 166.535 144.365 184.099 144.365C200.345 144.365 213.782 156.748 215.626 172.555ZM163.11 271.527C174.556 271.527 183.835 262.248 183.835 250.802C183.835 239.356 174.556 230.077 163.11 230.077C151.664 230.077 142.385 239.356 142.385 250.802C142.385 262.248 151.664 271.527 163.11 271.527ZM217.909 278.992C229.355 278.992 238.634 269.713 238.634 258.267C238.634 246.82 229.355 237.541 217.909 237.541C206.463 237.541 197.184 246.82 197.184 258.267C197.184 269.713 206.463 278.992 217.909 278.992ZM134.657 118.986C137.373 118.986 139.574 116.784 139.574 114.068C139.574 111.352 137.373 109.15 134.657 109.15C131.941 109.15 129.739 111.352 129.739 114.068C129.739 116.784 131.941 118.986 134.657 118.986Z" fill="#F1EEEE"/>
<path d="M455.811 328.698C462.553 328.698 468.018 323.232 468.018 316.491C468.018 309.749 462.553 304.284 455.811 304.284C449.07 304.284 443.604 309.749 443.604 316.491C443.604 323.232 449.07 328.698 455.811 328.698Z" fill="#B0F2A4"/>
<path d="M312.315 185.465C289.043 185.465 282.368 192.841 282.368 206.805C282.368 217.519 284.388 291.374 285.354 325.361C285.618 334.845 293.434 342.397 302.918 342.397H465.647C475.395 342.397 483.299 334.494 483.211 324.746C483.035 297.961 481.015 233.502 480.049 202.589C479.786 193.017 471.882 185.552 462.31 185.552L321.887 186.694M379.935 179.054C379.935 179.054 379.935 135.056 379.935 119.249C379.935 103.442 378.53 94.3962 359.825 94.3962M351.219 94.3962C351.219 94.3962 138.257 92.4641 110.506 94.3962C82.7555 96.3282 86.0926 114.507 86.0926 123.552C86.0926 132.597 89.9567 273.811 89.4298 286.72C88.9907 299.629 95.138 305.865 107.608 305.865M240.742 305.865C240.742 305.865 283.071 304.372 284.564 305.865M115.775 305.865H199.292M148.005 173.785H140.54C130.266 173.785 121.835 182.127 121.835 192.49C121.835 202.765 130.178 211.196 140.54 211.196H223.003C235.649 211.196 246.011 200.921 246.011 188.187C246.011 175.541 235.736 165.178 223.003 165.178H215.626C215.626 149.986 203.331 137.779 188.226 137.779H176.722C161.529 137.779 149.322 150.073 149.322 165.178V166.496M175.932 172.204V182.742H168.379L183.923 198.198L199.643 182.127L190.949 181.776L191.563 164.651H175.58M164.515 225.51C176.195 224.72 186.294 233.589 187.085 245.269C187.875 256.949 179.005 267.049 167.325 267.839C155.645 268.629 145.634 261.867 144.931 250.187C144.492 243.425 147.478 231.218 164.866 229.989M153.889 264.151C153.889 264.151 162.759 244.04 178.215 257.213M217.207 248.87C226.691 251.417 232.311 261.077 229.765 270.561C227.218 280.046 217.558 285.666 208.073 283.119C198.589 280.573 192.529 272.581 195.076 263.185C196.481 257.74 202.19 248.87 216.241 252.558M198.589 276.621C198.589 276.621 210.971 263.097 219.666 277.587M448.961 318.072L452.913 322.199L462.661 310.783M80.56 111.96C58.0783 114.331 37.9677 98.0846 35.5088 75.6029C33.0499 53.1212 49.3842 33.0106 71.8659 30.5516C94.3476 28.0927 114.458 44.4271 116.917 66.9088C117.708 74.549 116.39 81.9258 113.404 88.4245M33.2255 177.21L31.6448 173.697C31.6448 173.697 18.911 174.224 19.7892 161.753C20.5796 150.864 35.2453 148.054 40.251 156.396C44.4664 163.334 39.1972 170.272 39.1972 170.272L40.6023 174.663L37.353 178.351H42.2709C42.2709 178.351 42.2709 182.918 37.6165 181.776M27.4294 166.496L27.8685 162.807L32.1717 165.881L32.8742 160.436L35.9479 162.807M80.56 49.6962L76.2569 48.7302L79.594 55.5801L82.3164 51.4526C88.2003 68.6651 98.3873 75.2516 98.3873 75.2516L77.1351 90.8834C63.6988 84.4726 56.5854 61.7274 56.5854 61.7274L73.9736 50.5744M68.7923 75.7785L83.1946 65.9428M74.4127 82.8919L88.9028 73.0561M71.2512 79.3791L81.2626 72.5292M169.082 38.1041C169.082 38.1041 190.422 38.7188 204.824 47.0616M174.614 37.4894C174.614 37.4894 174.527 26.4241 179.093 17.291L204.736 23.7018C204.736 23.7018 201.048 30.9907 200.258 41.1778M183.835 30.4638L186.031 34.4157L194.461 27.8293M292.995 50.3109L290.272 67.26L297.649 61.9031L304.148 67.6991L303.445 51.9795M290.887 63.3082L286.232 57.5999L278.856 59.2685L286.935 46.9738M45.1689 267.049L65.016 261.34M54.5656 264.326L49.5599 245.884L59.1322 243.337L62.3815 245.094L60.4494 247.992L53.2483 249.836M50.965 250.89L43.676 252.646L41.9196 256.247L45.1689 257.564L53.863 255.369M291.326 163.246C286.847 148.141 282.807 127.241 282.807 127.241L301.074 122.235L303.269 125.484L313.456 123.025L313.72 117.844L331.372 113.365L342.612 150.952C343.666 154.552 341.559 158.328 337.87 159.294L298.527 169.042M287.023 140.765L333.304 127.855M309.153 148.844L313.105 151.918L318.462 141.906M302.918 203.468C302.918 205.553 301.227 207.244 299.142 207.244C297.056 207.244 295.366 205.553 295.366 203.468C295.366 201.382 297.056 199.691 299.142 199.691C301.227 199.691 302.918 201.382 302.918 203.468ZM316.618 203.468C316.618 205.553 314.927 207.244 312.842 207.244C310.756 207.244 309.065 205.553 309.065 203.468C309.065 201.382 310.756 199.691 312.842 199.691C314.927 199.691 316.618 201.382 316.618 203.468ZM330.405 203.468C330.405 205.553 328.715 207.244 326.629 207.244C324.544 207.244 322.853 205.553 322.853 203.468C322.853 201.382 324.544 199.691 326.629 199.691C328.715 199.691 330.405 201.382 330.405 203.468ZM107.169 111.697C107.169 113.782 105.479 115.473 103.393 115.473C101.307 115.473 99.6168 113.782 99.6168 111.697C99.6168 109.611 101.307 107.92 103.393 107.92C105.479 107.92 107.169 109.611 107.169 111.697ZM120.869 111.697C120.869 113.782 119.178 115.473 117.093 115.473C115.007 115.473 113.317 113.782 113.317 111.697C113.317 109.611 115.007 107.92 117.093 107.92C119.178 107.92 120.869 109.611 120.869 111.697ZM134.657 111.697C134.657 113.782 132.966 115.473 130.88 115.473C128.795 115.473 127.104 113.782 127.104 111.697C127.104 109.611 128.795 107.92 130.88 107.92C132.966 107.92 134.657 109.611 134.657 111.697ZM370.363 232.975H303.357C301.776 232.975 300.459 231.657 300.459 230.077C300.459 228.496 301.776 227.179 303.357 227.179H370.363C371.944 227.179 373.261 228.496 373.261 230.077C373.261 231.657 371.944 232.975 370.363 232.975ZM409.091 232.975H384.853C383.273 232.975 381.955 231.657 381.955 230.077C381.955 228.496 383.273 227.179 384.853 227.179H409.091C410.672 227.179 411.989 228.496 411.989 230.077C411.989 231.657 410.672 232.975 409.091 232.975ZM466.876 97.8211L442.199 160.085C441.585 161.578 439.916 162.28 438.511 161.666C437.018 161.051 436.315 159.382 436.93 157.977L461.607 95.7134C462.222 94.2205 463.891 93.518 465.296 94.1327C466.789 94.7474 467.491 96.416 466.876 97.8211ZM432.188 143.048L417.083 127.943L432.188 112.838C433.33 111.697 433.33 109.94 432.188 108.798C431.046 107.657 429.29 107.657 428.148 108.798L411.023 125.923C409.882 127.065 409.882 128.821 411.023 129.963L428.148 147.088C429.29 148.229 431.046 148.229 432.188 147.088C433.33 145.946 433.33 144.102 432.188 143.048ZM471.355 112.838L486.46 127.943L471.355 143.048C470.214 144.19 470.214 145.946 471.355 147.088C472.497 148.229 474.253 148.229 475.395 147.088L492.52 129.963C493.661 128.821 493.661 127.065 492.52 125.923L475.395 108.798C474.253 107.657 472.497 107.657 471.355 108.798C470.301 109.94 470.301 111.697 471.355 112.838ZM327.595 304.46H303.357C301.776 304.46 300.459 303.142 300.459 301.562C300.459 299.981 301.776 298.663 303.357 298.663H327.595C329.176 298.663 330.493 299.981 330.493 301.562C330.405 303.142 329.176 304.46 327.595 304.46ZM354.204 247.465H319.165C317.584 247.465 316.267 246.148 316.267 244.567C316.267 242.986 317.584 241.669 319.165 241.669H354.204C355.785 241.669 357.102 242.986 357.102 244.567C357.102 246.235 355.873 247.465 354.204 247.465ZM379.935 262.131H333.655C332.074 262.131 330.757 260.813 330.757 259.233C330.757 257.652 332.074 256.335 333.655 256.335H379.935C381.516 256.335 382.833 257.652 382.833 259.233C382.833 260.813 381.516 262.131 379.935 262.131ZM442.638 276.709H333.743C332.162 276.709 330.845 275.391 330.845 273.811C330.845 272.23 332.162 270.913 333.743 270.913H442.638C444.219 270.913 445.536 272.23 445.536 273.811C445.449 275.391 444.219 276.709 442.638 276.709ZM364.304 290.584H318.726C317.145 290.584 315.828 289.267 315.828 287.686C315.828 286.105 317.145 284.788 318.726 284.788H364.304C365.884 284.788 367.202 286.105 367.202 287.686C367.202 289.267 365.884 290.584 364.304 290.584ZM427.533 262.131H392.494C390.913 262.131 389.596 260.813 389.596 259.233C389.596 257.652 390.913 256.335 392.494 256.335H427.533C429.114 256.335 430.431 257.652 430.431 259.233C430.431 260.813 429.114 262.131 427.533 262.131ZM171.014 243.337C171.014 246.393 168.537 248.87 165.481 248.87C162.426 248.87 159.949 246.393 159.949 243.337C159.949 240.282 162.426 237.805 165.481 237.805C168.537 237.805 171.014 240.282 171.014 243.337ZM217.821 263.272C217.821 265.794 215.777 267.839 213.255 267.839C210.733 267.839 208.688 265.794 208.688 263.272C208.688 260.75 210.733 258.706 213.255 258.706C215.777 258.706 217.821 260.75 217.821 263.272ZM471.004 316.491C471.004 324.881 464.202 331.683 455.811 331.683C447.421 331.683 440.619 324.881 440.619 316.491C440.619 308.1 447.421 301.298 455.811 301.298C464.202 301.298 471.004 308.1 471.004 316.491ZM62.7327 167.286C62.7327 183.825 49.3253 197.232 32.7864 197.232C16.2475 197.232 2.84009 183.825 2.84009 167.286C2.84009 150.747 16.2475 137.34 32.7864 137.34C49.3253 137.34 62.7327 150.747 62.7327 167.286ZM76.2569 255.193C76.2569 267.803 66.0342 278.026 53.4239 278.026C40.8136 278.026 30.5909 267.803 30.5909 255.193C30.5909 242.583 40.8136 232.36 53.4239 232.36C66.0342 232.36 76.2569 242.583 76.2569 255.193ZM218.612 33.8888C218.612 50.4277 205.204 63.8351 188.665 63.8351C172.126 63.8351 158.719 50.4277 158.719 33.8888C158.719 17.3499 172.126 3.94244 188.665 3.94244C205.204 3.94244 218.612 17.3499 218.612 33.8888ZM335.938 43.8123C335.938 65.7834 318.127 83.5944 296.156 83.5944C274.185 83.5944 256.374 65.7834 256.374 43.8123C256.374 21.8413 274.185 4.03026 296.156 4.03026C318.127 4.03026 335.938 21.8413 335.938 43.8123ZM70.4608 65.5915C70.4608 67.1435 69.2027 68.4017 67.6506 68.4017C66.0986 68.4017 64.8404 67.1435 64.8404 65.5915C64.8404 64.0394 66.0986 62.7813 67.6506 62.7813C69.2027 62.7813 70.4608 64.0394 70.4608 65.5915ZM311.173 35.8208C311.173 43.678 304.804 50.0475 296.946 50.0475C289.089 50.0475 282.72 43.678 282.72 35.8208C282.72 27.9636 289.089 21.5941 296.946 21.5941C304.804 21.5941 311.173 27.9636 311.173 35.8208ZM299.054 28.7074L300.108 34.0644L305.114 36.2599L300.284 38.9823L299.757 44.4271L295.717 40.6508L290.36 41.8803L292.731 36.8746L289.921 32.1324L295.366 32.8349L299.054 28.7074ZM231.433 306.392L229.238 306.743C228.711 305.689 228.008 304.723 227.218 303.933L228.272 302.088C228.535 301.562 228.447 300.859 227.921 300.595L225.725 299.278C225.198 298.927 224.496 299.103 224.144 299.542L222.827 301.21C221.685 300.859 220.544 300.683 219.314 300.683L218.7 298.663C218.524 298.049 217.909 297.785 217.294 297.873L214.66 298.488C214.045 298.663 213.606 299.19 213.694 299.805L213.957 301.913C212.816 302.44 211.85 303.142 210.971 303.933L209.039 302.967C208.513 302.703 207.81 302.879 207.459 303.406L205.966 305.601C205.614 306.128 205.702 306.831 206.229 307.182L207.986 308.411C207.546 309.465 207.371 310.607 207.283 311.836L205.175 312.451C204.561 312.627 204.209 313.241 204.297 313.856L204.824 316.403C204.912 317.018 205.527 317.369 206.141 317.281L208.337 316.93C208.864 317.984 209.566 318.95 210.357 319.74L209.303 321.584C209.039 322.111 209.127 322.814 209.654 323.077L211.85 324.394C212.377 324.746 213.079 324.57 213.43 324.131L214.748 322.462C215.889 322.814 217.031 322.989 218.26 322.989L218.875 325.009C219.051 325.624 219.666 325.887 220.28 325.8L222.915 325.185C223.53 325.009 223.969 324.482 223.881 323.868L223.617 321.76C224.759 321.233 225.725 320.53 226.603 319.74L228.535 320.706C229.062 320.97 229.765 320.794 230.116 320.267L231.609 318.072C231.96 317.545 231.872 316.842 231.345 316.491L229.589 315.261C230.028 314.207 230.204 313.066 230.292 311.836L232.399 311.222C233.014 311.046 233.365 310.431 233.278 309.817L232.751 307.27C232.663 306.655 232.048 306.304 231.433 306.392ZM224.067 310.016C224.977 312.78 223.362 315.795 220.46 316.751C217.557 317.706 214.467 316.24 213.557 313.476C212.647 310.711 214.262 307.696 217.164 306.74C220.067 305.785 223.157 307.251 224.067 310.016Z" stroke="#333333" stroke-width="1.5" stroke-miterlimit="10" stroke-linecap="round" stroke-linejoin="round"/>
<path d="M58.0781 225.686C62.4691 218.66 59.3954 205.487 49.2962 201.096M31.908 132.773C33.0497 125.572 39.6361 118.107 53.6871 115.034M108.75 38.1041C120.517 25.019 137.73 21.5941 153.362 25.4581M224.056 43.0219C238.107 49.1693 241.444 55.9313 235.121 67.7869C228.798 79.6425 214.221 57.7755 251.28 49.6084M343.929 43.9001C392.845 40.7386 406.281 81.9258 385.204 107.306M52.4576 284.173C45.7834 308.587 72.8317 322.287 90.659 307.27" stroke="#DADADA" stroke-width="2" stroke-miterlimit="10" stroke-linecap="round" stroke-linejoin="round" stroke-dasharray="5 5"/>
</svg>
