<?xml version="1.0" encoding="utf-8"?>
<!-- Generator: Adobe Illustrator 25.2.0, SVG Export Plug-In . SVG Version: 6.00 Build 0)  -->
<svg version="1.1" id="loader-logo" xmlns="http://www.w3.org/2000/svg" xmlns:xlink="http://www.w3.org/1999/xlink" x="0px"
	 y="0px" viewBox="0 0 175 50" style="enable-background:new 0 0 175 50;" xml:space="preserve">
<style type="text/css">
	.st0{fill:#FFFFFF;}
</style>
<g>
	<path class="st0" d="M20.3,23.2V5.6c0-0.7,0.5-1.2,1.1-1.2c0.6,0,1.1,0.5,1.1,1.2v17.6c0,0.7-0.5,1.2-1.1,1.2
		C20.8,24.4,20.3,23.9,20.3,23.2z M32,24.4c0.6,0,1.1-0.5,1.1-1.2V5.6c0-0.7-0.5-1.2-1.1-1.2c-0.6,0-1.1,0.5-1.1,1.2v17.6
		C30.9,23.9,31.4,24.4,32,24.4z M37.3,27.4c0.6,0,1.1-0.5,1.1-1.2V8.5c0-0.7-0.5-1.2-1.1-1.2c-0.6,0-1.1,0.5-1.1,1.2v17.6
		C36.2,26.8,36.7,27.4,37.3,27.4z M16.2,27.4c0.6,0,1.1-0.5,1.1-1.2V8.5c0-0.7-0.5-1.2-1.1-1.2c-0.6,0-1.1,0.5-1.1,1.2v17.6
		C15.1,26.8,15.6,27.4,16.2,27.4z M10.9,13.2c-0.6,0-1.1,0.5-1.1,1.2v8.8c0,0.7,0.5,1.2,1.1,1.2c0.6,0,1.1-0.5,1.1-1.2v-8.8
		C12,13.7,11.5,13.2,10.9,13.2z M42.6,13.2c-0.6,0-1.1,0.5-1.1,1.2v8.8c0,0.7,0.5,1.2,1.1,1.2c0.6,0,1.1-0.5,1.1-1.2v-8.8
		C43.7,13.7,43.2,13.2,42.6,13.2z M39.8,33.7H32c-2.3,0-4.2-2.1-4.2-4.6V2.8c0-0.7-0.5-1.3-1.1-1.3c-0.6,0-1.2,0.5-1.2,1.2v26.4
		c0,2.5-1.9,4.6-4.2,4.6h-7.9c-0.8,0-1.4,0.9-1.1,1.7c0.2,0.5,0.6,0.7,1.1,0.7h7.8c0.1,0,0.3,0,0.4,0c0.1,0,0.1,0.1,0.1,0.2
		c-1.1,1.1-2,1.7-2.8,2.2c-1.8,1-3,1.1-3,1.1c-0.6,0-1.1,0.5-1.1,1.2c0,0.7,0.5,1.2,1.1,1.2c0.2,0,4.5-0.1,9.3-6.2
		c0-0.1,0.1,0,0.1,0c0,0.9-0.3,1.7-0.7,2.4c-1.1,1.6-2.8,4.5-3.5,8.8c-0.1,0.6,0.2,1.3,0.8,1.5c0.1,0,0.2,0,0.3,0c0.5,0,1-0.4,1.1-1
		c0.4-2.7,1.3-4.8,2.1-6.2c0-0.1,0.1,0,0.2,0c0.3,2.4,1,4.3,2.7,6.2c0.2,0.2,0.5,0.4,0.8,0.4c0.3,0,0.6-0.1,0.8-0.4
		c0.4-0.5,0.3-1.3-0.1-1.7c-1.4-1.6-2-3.3-2.2-5.7c0-0.1,0.1-0.1,0.2-0.1c0.5,0.8,1.2,1.5,1.9,2.1c2.1,2,4.2,2.7,4.3,2.8
		c0.1,0,0.2,0.1,0.4,0.1c0.5,0,0.9-0.3,1.1-0.8c0.2-0.6-0.1-1.4-0.7-1.6c-0.1,0-4.2-1.6-6.2-5.9c0-0.1,0-0.2,0.1-0.1
		c4,1.2,7.5,5.1,7.6,5.2c0.4,0.5,1.1,0.5,1.6,0c0.4-0.5,0.4-1.3,0-1.8c-0.1-0.1-1.8-2-4.2-3.6c-0.1,0,0-0.1,0-0.1h6
		c0.8,0,1.4-0.9,1.1-1.7C40.7,34,40.3,33.7,39.8,33.7z"/>
	<path class="st0" d="M165.2,23.8v-2.9H162v-3.5h-3.4v6.8v0.4v2.9v0.4v2.3c0,1.8,0.5,3.1,1.4,4.1c0.9,0.9,2.2,1.4,3.7,1.4h1.4v-3.2
		c0,0-0.5,0-0.8,0c-0.8,0-1.4-0.2-1.8-0.6c-0.4-0.4-0.6-1.1-0.6-2v-6.1L165.2,23.8L165.2,23.8z M138.2,24.1c0.6,1.2,1,2.5,1,4.1
		c0,1.6-0.3,3-1,4.1c-0.6,1.2-1.5,2.1-2.7,2.7c-1.2,0.6-2.5,0.9-4,0.9c-1.5,0-2.9-0.3-4-0.9c-1.2-0.6-2.1-1.5-2.7-2.7
		c-0.6-1.2-1-2.5-1-4.1c0-1.6,0.3-2.9,0.9-4.1c0.6-1.2,1.5-2.1,2.7-2.7c1.2-0.6,2.5-1,4-1c1.5,0,2.9,0.3,4,1
		C136.7,22,137.6,22.9,138.2,24.1z M135.6,28.1c0-1.5-0.4-2.6-1.1-3.5c-0.7-0.8-1.7-1.3-3-1.3c-1.3,0-2.3,0.4-3,1.3
		c-0.7,0.8-1.1,2-1.1,3.5c0,1.4,0.4,2.5,1.1,3.4c0.7,0.9,1.7,1.3,3,1.3c1.3,0,2.3-0.4,3-1.3C135.2,30.7,135.6,29.5,135.6,28.1z
		 M155.2,24.1c0.6,1.2,1,2.5,1,4.1c0,1.6-0.3,3-1,4.1c-0.6,1.2-1.5,2.1-2.7,2.7c-1.2,0.6-2.5,0.9-4,0.9c-1.5,0-2.9-0.3-4-0.9
		c-1.2-0.6-2.1-1.5-2.7-2.7c-0.6-1.2-1-2.5-1-4.1c0-1.6,0.3-2.9,0.9-4.1c0.6-1.2,1.5-2.1,2.7-2.7c1.2-0.6,2.5-1,4-1
		c1.5,0,2.9,0.3,4,1C153.6,22,154.5,22.9,155.2,24.1z M152.6,28.1c0-1.5-0.4-2.6-1.1-3.5c-0.7-0.8-1.7-1.3-3-1.3
		c-1.3,0-2.3,0.4-3,1.3c-0.7,0.8-1.1,2-1.1,3.5c0,1.4,0.4,2.5,1.1,3.4c0.7,0.9,1.7,1.3,3,1.3c1.3,0,2.3-0.4,3-1.3
		C152.2,30.7,152.6,29.5,152.6,28.1z M116.4,23.2v-2.3h-3.3v14.8h3.4v-8.8c0.4-1,1.1-1.7,2-2.1c1-0.5,2.1-0.7,3.5-0.7v-3.2
		c-1.3,0-2.4,0.2-3.3,0.6C117.7,21.8,117,22.4,116.4,23.2z"/>
	<path class="st0" d="M62.7,14.2h3v3.2c0,0-2.1,0-2.3,0c-0.8,0-1.4,0.2-1.8,0.6c-0.4,0.4-0.6,1.1-0.6,2v0.9h4.7v2.9H61v11.9h-3.4
		V24.2v-0.4v-2.9v-0.4v-0.8c0-1.8,0.5-3.1,1.4-4.1C59.9,14.6,61.1,14.2,62.7,14.2z M109.4,23.8v-2.9h-3.2v-3.5h-3.4v6.8v0.4v2.9v0.7
		v2.1c0,1.8,0.5,3.1,1.4,4.1c0.9,0.9,2.2,1.4,3.7,1.4h1.4v-3.2c0,0-0.5,0-0.8,0c-0.8,0-1.4-0.2-1.8-0.6c-0.4-0.4-0.6-1.1-0.6-2v-6.1
		L109.4,23.8L109.4,23.8z M69.4,35.6h3.5V20.8h-3.5L69.4,35.6L69.4,35.6z M80.1,23.2v-2.3h-3.3v14.8h3.4v-8.8c0.4-1,1.1-1.7,2-2.1
		c1-0.5,2.1-0.7,3.5-0.7v-3.2c-1.3,0-2.4,0.2-3.3,0.6C81.4,21.8,80.6,22.4,80.1,23.2z M98,28c-0.6-0.4-1.5-0.8-2.6-1.1
		c-1.1-0.3-1.8-0.5-2.2-0.7c-0.4-0.2-0.7-0.3-1-0.5c-0.2-0.2-0.4-0.5-0.4-0.9c0-0.5,0.2-0.9,0.7-1.1c0.4-0.2,1.1-0.3,2-0.3
		c0.8,0,1.6,0.1,2.4,0.3c0.8,0.2,1.4,0.5,2,0.9v-3.1c-0.5-0.3-1.2-0.6-2.1-0.8c-0.9-0.2-1.8-0.3-2.7-0.3c-1.8,0-3.2,0.4-4.2,1.1
		c-1,0.7-1.6,1.8-1.6,3.3c0,0.9,0.2,1.6,0.5,2.2c0.3,0.5,0.8,1,1.4,1.4c0.6,0.4,1.5,0.7,2.6,1.1c1,0.3,1.7,0.5,2.1,0.7
		c0.5,0.2,0.8,0.4,1,0.6c0.2,0.2,0.3,0.5,0.3,0.9c0,0.5-0.2,0.8-0.6,1c-0.4,0.2-1,0.3-1.9,0.3S92,32.7,91,32.4
		c-1-0.3-1.8-0.7-2.5-1.2v3.3c0.6,0.4,1.4,0.8,2.5,1c1.1,0.2,2.1,0.4,3,0.4c1.9,0,3.3-0.4,4.3-1.2c1-0.8,1.5-1.8,1.5-3.1
		c0-0.8-0.1-1.6-0.4-2.1C99.1,28.9,98.7,28.4,98,28z M69.4,17.3h0.7c1.6,0,2.8-1.4,2.8-3.2h-3.5V17.3z"/>
</g>
</svg>
