<?xml version="1.0" encoding="utf-8"?>
<!-- Generator: Adobe Illustrator 25.2.0, SVG Export Plug-In . SVG Version: 6.00 Build 0)  -->
<svg version="1.1" id="Layer_1" xmlns="http://www.w3.org/2000/svg" xmlns:xlink="http://www.w3.org/1999/xlink" x="0px" y="0px"
	 viewBox="0 0 64 78.4" style="enable-background:new 0 0 64 78.4;" xml:space="preserve">
<style type="text/css">
	.st0{fill:#FFFFFF;}
</style>
<path class="st0" d="M21.8,36.3V8.5c0-1.1,0.8-2,1.8-2c1,0,1.8,0.9,1.8,2v27.8c0,1.1-0.8,2-1.8,2C22.6,38.2,21.8,37.3,21.8,36.3z
	 M40.3,38.2c1,0,1.8-0.9,1.8-2V8.5c0-1.1-0.8-2-1.8-2c-1,0-1.8,0.9-1.8,2v27.8C38.5,37.3,39.3,38.2,40.3,38.2z M48.6,42.9
	c1,0,1.8-0.9,1.8-2V13c0-1.1-0.8-2-1.8-2c-1,0-1.8,0.9-1.8,2v27.9C46.9,42,47.6,42.9,48.6,42.9z M15.3,42.9c1,0,1.8-0.9,1.8-2V13
	c0-1.1-0.8-2-1.8-2c-1,0-1.8,0.9-1.8,2v27.9C13.5,42,14.3,42.9,15.3,42.9z M6.9,20.4c-1,0-1.8,0.9-1.8,2v13.9c0,1.1,0.8,2,1.8,2
	c1,0,1.8-0.9,1.8-2V22.4C8.7,21.3,7.9,20.4,6.9,20.4z M57,20.4c-1,0-1.8,0.9-1.8,2v13.9c0,1.1,0.8,2,1.8,2c1,0,1.8-0.9,1.8-2V22.4
	C58.7,21.3,58,20.4,57,20.4z M52.7,52.8H40.3c-3.6,0-6.6-3.3-6.6-7.3V3.9c0-1-0.8-2-1.7-2.1c-1,0-1.8,0.9-1.8,2v41.7
	c0,4-3,7.3-6.6,7.3H11.2c-1.2,0-2.3,1.4-1.7,2.8c0.3,0.7,1,1.2,1.7,1.2h12.4c0.2,0,0.5,0,0.7,0c0.1,0,0.2,0.2,0.1,0.2
	c-1.7,1.7-3.2,2.7-4.5,3.5c-2.8,1.6-4.7,1.7-4.7,1.7c-1,0-1.8,0.9-1.8,2c0,1.1,0.8,2,1.8,2c0.3,0,7.2-0.1,14.7-9.7
	c0.1-0.1,0.2,0,0.2,0.1c0,1.4-0.4,2.7-1.2,3.8c-1.8,2.5-4.5,7.2-5.6,13.9c-0.2,1,0.3,2,1.2,2.3c0.2,0,0.4,0.1,0.5,0.1
	c0.8,0,1.6-0.7,1.7-1.6c0.7-4.2,2.1-7.5,3.4-9.9c0.1-0.1,0.2-0.1,0.2,0c0.5,3.8,1.6,6.8,4.3,9.8c0.3,0.4,0.8,0.6,1.2,0.6
	c0.5,0,1-0.2,1.3-0.7c0.6-0.8,0.5-2-0.1-2.7c-2.3-2.6-3.1-5.2-3.4-9c0-0.1,0.2-0.2,0.2-0.1c0.8,1.2,1.8,2.3,3,3.4
	c3.4,3.1,6.7,4.3,6.8,4.4c0.2,0.1,0.4,0.1,0.6,0.1c0.7,0,1.4-0.5,1.7-1.3c0.3-1-0.2-2.1-1.1-2.5c-0.1,0-6.7-2.6-9.8-9.3
	c0-0.1,0-0.2,0.2-0.2c6.3,1.9,11.9,8.1,12,8.1c0.7,0.8,1.8,0.8,2.5,0c0.7-0.8,0.7-2,0-2.8c-0.2-0.2-2.8-3.1-6.7-5.7
	c-0.1,0,0-0.2,0-0.2h9.5c1.2,0,2.3-1.4,1.7-2.8C54.1,53.3,53.4,52.8,52.7,52.8z"/>
</svg>
